<?xml version="1.0" encoding="utf-8"?>
<!-- Generator: Adobe Illustrator 24.1.2, SVG Export Plug-In . SVG Version: 6.00 Build 0)  -->
<svg version="1.1" id="Camada_1" xmlns="http://www.w3.org/2000/svg" xmlns:xlink="http://www.w3.org/1999/xlink" x="0px" y="0px"
	 viewBox="0 0 230 220" style="enable-background:new 0 0 230 220;" xml:space="preserve">
<g>
	<path d="M217.47,159.43c1,1.9,1.5,4.5,1.5,7.82c0,6.16-1.27,11.07-3.8,14.7c-6.4,9.17-12.87,16.24-19.4,21.22
		c-6.53,4.98-14.27,7.47-23.19,7.47c-9.86,0-17.93-3.44-24.19-10.31c-6.27-6.87-12.13-17.58-17.6-32.12
		c-4-10.43-7.3-18.21-9.9-23.35c-2.6-5.13-5.17-8.77-7.7-10.91c-2.53-2.13-5.73-3.44-9.6-3.91l-2.2,17.54
		c-2.8,22.6-8.23,38.88-16.3,48.83c-8.07,9.95-19.16,14.93-33.29,14.93c-9.2,0-17.36-2.64-24.49-7.94
		c-7.13-5.29-12.1-12.05-14.9-20.27c-0.93-2.85-1.4-5.93-1.4-9.24c0-4.74,0.93-8.85,2.8-12.33c1.86-3.47,4.26-5.21,7.2-5.21
		c1.73,0,3.2,0.51,4.4,1.54c1.2,1.03,2.33,2.81,3.4,5.33c4.13,9.17,7.76,15.57,10.9,19.2c3.13,3.64,7.03,5.45,11.7,5.45
		c5.33,0,9.9-2.88,13.7-8.65c3.8-5.77,6.5-14.66,8.1-26.67l2.8-22.52h-3.2c-3.07,0-5.47-1.03-7.2-3.08c-1.73-2.05-2.6-4.9-2.6-8.53
		c0-4.11,0.9-7.38,2.7-9.84c1.8-2.45,4.03-3.67,6.7-3.67h6.6c0.93-7.74,1.6-13.11,2-16.12l6.2-53.34c-3.47-0.47-6.73-0.71-9.8-0.71
		c-11.33,0-19.93,2.33-25.79,6.99c-5.87,4.66-8.8,11.34-8.8,20.03c0,3.95,0.37,7.15,1.1,9.6c0.73,2.45,1.7,5.18,2.9,8.18
		c0.53,1.27,0.8,2.69,0.8,4.27c0,3.48-1.37,6.52-4.1,9.13c-2.73,2.61-5.77,3.91-9.1,3.91c-4.27,0-7.4-2.21-9.4-6.64
		c-4-8.38-6-17.38-6-27.03c0-9.95,2.3-19.04,6.9-27.26c4.6-8.21,11.56-14.82,20.89-19.79c9.33-4.98,20.86-7.47,34.59-7.47
		c6,0,11.5,0.4,16.5,1.19c5,0.79,10.5,2.29,16.5,4.5c6.53,2.37,9.8,6.8,9.8,13.27c0,8.69-3.13,13.04-9.4,13.04l-7.8,63.77
		c15.6-1.9,28.29-9.84,38.09-23.82c9.8-13.98,17.96-32.99,24.49-57.01c1.2-4.42,3.23-7.82,6.1-10.19c2.86-2.37,6.5-3.56,10.9-3.56
		c3.73,0,6.63,0.99,8.7,2.96c2.07,1.98,3.1,4.78,3.1,8.42c0,1.11-0.27,2.93-0.8,5.45c-6.67,26.08-16.19,46.78-28.59,62.11
		c-12.4,15.33-25.93,25.53-40.59,30.58c5.07,1.42,9.23,3.56,12.5,6.4c3.26,2.85,6.03,6.36,8.3,10.55c2.27,4.19,4.86,10,7.79,17.43
		c4.13,10.43,8,17.82,11.6,22.16c3.6,4.35,7.8,6.52,12.6,6.52c4.26,0,8.33-1.7,12.2-5.1c3.86-3.4,8.73-9.2,14.59-17.42
		c1.6-2.21,3.4-3.32,5.4-3.32C215.1,156.58,216.47,157.53,217.47,159.43z"/>
</g>
</svg>
